<?xml version="1.0" standalone="no"?>
<!DOCTYPE svg PUBLIC "-//W3C//DTD SVG 20010904//EN"
 "http://www.w3.org/TR/2001/REC-SVG-20010904/DTD/svg10.dtd">
<svg version="1.0" xmlns="http://www.w3.org/2000/svg"
 width="528.000000pt" height="528.000000pt" viewBox="0 0 528.000000 528.000000"
 preserveAspectRatio="xMidYMid meet">
<metadata>
Created by potrace 1.14, written by Peter Selinger 2001-2017
</metadata>
<g transform="translate(0.000000,528.000000) scale(0.100000,-0.100000)"
fill="#000000" stroke="none">
<path d="M174 5246 c-34 -34 -34 -35 -34 -124 0 -50 5 -103 11 -119 16 -42 91
-153 149 -219 118 -136 433 -409 677 -588 243 -177 777 -516 1161 -736 147
-84 161 -95 150 -111 -7 -9 -44 -63 -83 -119 l-70 -101 -45 53 c-354 416 -730
722 -1136 926 -227 114 -363 160 -499 169 -110 7 -164 -6 -213 -51 -32 -30
-36 -39 -36 -84 0 -36 9 -68 32 -113 110 -226 437 -440 1090 -719 198 -84 563
-224 692 -265 30 -10 56 -18 57 -19 1 -1 -13 -39 -33 -83 -19 -45 -41 -111
-48 -147 -11 -53 -24 -79 -64 -128 -27 -35 -71 -94 -99 -133 -699 -987 -1152
-1681 -1553 -2380 -35 -60 -70 -120 -78 -132 -13 -20 -13 -23 1 -23 39 0 789
965 1147 1474 148 211 716 1050 750 1108 13 22 50 56 88 82 37 25 91 69 121
99 l53 55 76 -92 c493 -594 1041 -1092 1335 -1215 223 -92 426 -31 403 123
-42 278 -648 809 -1206 1057 -143 63 -362 149 -457 180 -40 13 -73 27 -73 32
0 5 15 27 34 50 27 34 68 95 133 196 1 2 53 -39 115 -91 324 -271 653 -515
1068 -793 490 -328 851 -496 1097 -512 114 -7 172 7 219 54 31 31 34 39 34 94
0 51 -5 67 -34 112 -274 421 -1385 988 -2352 1200 l-101 22 39 88 c21 48 38
95 38 103 0 10 12 14 45 14 52 0 96 19 119 52 18 26 21 100 5 129 -9 17 -4 26
35 60 54 48 66 77 40 96 -23 16 -70 17 -84 1 -5 -7 -19 -25 -30 -40 l-21 -27
-49 37 -49 36 20 32 c10 17 19 42 19 55 0 30 -26 69 -45 69 -17 0 -48 -44 -66
-92 -11 -32 -18 -38 -41 -38 -41 0 -93 -24 -112 -51 -18 -27 -21 -92 -6 -136
10 -29 8 -33 -61 -100 l-71 -70 -76 111 c-192 284 -435 576 -717 865 -355 363
-684 624 -956 758 -155 77 -211 93 -325 93 -96 0 -96 0 -130 -34z m229 -31
c124 -32 390 -193 609 -367 217 -173 546 -488 704 -673 32 -38 61 -72 64 -75
23 -21 224 -270 279 -344 123 -166 205 -290 189 -284 -26 10 -403 238 -583
353 -760 484 -1156 803 -1345 1083 -58 86 -95 194 -86 250 11 70 59 86 169 57z
m158 -1003 c120 -34 351 -146 540 -262 238 -146 428 -298 644 -515 123 -123
324 -345 313 -345 -7 0 -268 93 -395 141 -559 209 -1044 476 -1238 680 -39 41
-81 96 -93 122 -23 50 -29 116 -12 147 29 54 122 66 241 32z m2469 -1123 c379
-108 724 -245 1130 -450 340 -171 611 -356 767 -523 141 -150 157 -250 48
-291 -176 -68 -573 98 -1110 463 -391 266 -724 511 -984 723 -90 74 -173 142
-185 151 -18 14 -5 13 84 -8 58 -13 170 -43 250 -65z m-443 -300 c399 -150
734 -336 1030 -574 336 -269 509 -508 450 -622 -21 -39 -39 -53 -84 -63 -221
-50 -770 401 -1409 1155 -65 77 -123 143 -129 147 -21 16 9 6 142 -43z"/>
</g>
</svg>
